<svg xmlns="http://www.w3.org/2000/svg" xmlns:xlink="http://www.w3.org/1999/xlink" width="1000" zoomAndPan="magnify" viewBox="0 0 750 142.499996" height="190" preserveAspectRatio="xMidYMid meet" version="1.0"><defs><g/></defs><g fill="#e03026" fill-opacity="1"><g transform="translate(1.345907, 127.204807)"><g><path d="M 105.46875 0 L 99.921875 -69.5 L 99.21875 -69.5 L 75.1875 -0.703125 L 59.265625 -0.703125 L 35.25 -69.5 L 34.546875 -69.5 L 29 0 L 2.28125 0 L 12.796875 -117.265625 L 41.21875 -117.265625 L 67.234375 -49.609375 L 93.25 -117.265625 L 121.671875 -117.265625 L 132.1875 0 Z M 105.46875 0 "/></g></g></g><g fill="#e03026" fill-opacity="1"><g transform="translate(135.795825, 127.204807)"><g><path d="M 15.421875 -8.671875 C 7.316406 -15.867188 3.265625 -25.101562 3.265625 -36.375 C 3.265625 -47.65625 7.476562 -56.921875 15.90625 -64.171875 C 24.34375 -71.421875 34.769531 -75.046875 47.1875 -75.046875 C 59.414062 -75.046875 69.722656 -71.394531 78.109375 -64.09375 C 86.492188 -56.800781 90.6875 -47.5625 90.6875 -36.375 C 90.6875 -25.195312 86.585938 -15.984375 78.390625 -8.734375 C 70.191406 -1.492188 59.789062 2.125 47.1875 2.125 C 34.113281 2.125 23.523438 -1.472656 15.421875 -8.671875 Z M 34.890625 -48.75 C 31.617188 -45.53125 29.984375 -41.410156 29.984375 -36.390625 C 29.984375 -31.367188 31.546875 -27.269531 34.671875 -24.09375 C 37.804688 -20.914062 41.929688 -19.328125 47.046875 -19.328125 C 51.972656 -19.328125 56.023438 -20.9375 59.203125 -24.15625 C 62.378906 -27.382812 63.96875 -31.460938 63.96875 -36.390625 C 63.96875 -41.410156 62.332031 -45.53125 59.0625 -48.75 C 55.789062 -51.976562 51.785156 -53.59375 47.046875 -53.59375 C 42.210938 -53.59375 38.160156 -51.976562 34.890625 -48.75 Z M 34.890625 -48.75 "/></g></g></g><g fill="#e03026" fill-opacity="1"><g transform="translate(229.740223, 127.204807)"><g><path d="M 27 -72.921875 L 44.78125 -33.265625 L 62.546875 -72.921875 L 92.390625 -72.921875 L 53.296875 0 L 36.25 0 L -2.84375 -72.921875 Z M 27 -72.921875 "/></g></g></g><g fill="#e03026" fill-opacity="1"><g transform="translate(319.278746, 127.204807)"><g><path d="M 10.9375 -113.5625 C 13.875 -116.507812 17.378906 -117.984375 21.453125 -117.984375 C 25.535156 -117.984375 29.046875 -116.507812 31.984375 -113.5625 C 34.921875 -110.625 36.390625 -107.117188 36.390625 -103.046875 C 36.390625 -98.972656 34.921875 -95.46875 31.984375 -92.53125 C 29.046875 -89.59375 25.535156 -88.125 21.453125 -88.125 C 17.378906 -88.125 13.875 -89.59375 10.9375 -92.53125 C 8 -95.46875 6.53125 -98.972656 6.53125 -103.046875 C 6.53125 -107.117188 8 -110.625 10.9375 -113.5625 Z M 8.53125 -72.921875 L 8.53125 0 L 33.6875 0 L 33.6875 -72.921875 Z M 8.53125 -72.921875 "/></g></g></g><g fill="#e03026" fill-opacity="1"><g transform="translate(362.200393, 127.204807)"><g><path d="M 82.296875 -32.984375 L 29.421875 -32.984375 C 29.421875 -27.859375 31.078125 -24.0625 34.390625 -21.59375 C 37.710938 -19.132812 41.316406 -17.90625 45.203125 -17.90625 C 49.273438 -17.90625 52.492188 -18.445312 54.859375 -19.53125 C 57.234375 -20.625 59.9375 -22.785156 62.96875 -26.015625 L 81.15625 -16.921875 C 73.582031 -4.222656 60.984375 2.125 43.359375 2.125 C 32.359375 2.125 22.925781 -1.640625 15.0625 -9.171875 C 7.195312 -16.703125 3.265625 -25.773438 3.265625 -36.390625 C 3.265625 -47.003906 7.195312 -56.097656 15.0625 -63.671875 C 22.925781 -71.253906 32.359375 -75.046875 43.359375 -75.046875 C 54.910156 -75.046875 64.3125 -71.707031 71.5625 -65.03125 C 78.8125 -58.351562 82.4375 -48.804688 82.4375 -36.390625 C 82.4375 -34.679688 82.390625 -33.546875 82.296875 -32.984375 Z M 30.140625 -46.90625 L 57.84375 -46.90625 C 57.28125 -50.695312 55.789062 -53.609375 53.375 -55.640625 C 50.957031 -57.679688 47.851562 -58.703125 44.0625 -58.703125 C 39.894531 -58.703125 36.578125 -57.613281 34.109375 -55.4375 C 31.648438 -53.257812 30.328125 -50.414062 30.140625 -46.90625 Z M 30.140625 -46.90625 "/></g></g></g><g fill="#e03026" fill-opacity="1"><g transform="translate(447.901571, 127.204807)"><g><path d="M 68.078125 -117.265625 L 115.421875 0 L 86.703125 0 L 78.03125 -23.453125 L 33.40625 -23.453125 L 24.734375 0 L -3.984375 0 L 43.359375 -117.265625 Z M 68.9375 -46.90625 L 55.859375 -81.015625 L 55.578125 -81.015625 L 42.5 -46.90625 Z M 68.9375 -46.90625 "/></g></g></g><g fill="#e03026" fill-opacity="1"><g transform="translate(559.327316, 127.204807)"><g><path d="M 8.53125 -117.265625 L 51.3125 -117.265625 C 63.25 -117.265625 72.910156 -114.179688 80.296875 -108.015625 C 87.691406 -101.859375 91.390625 -92.90625 91.390625 -81.15625 C 91.390625 -69.40625 87.644531 -60.191406 80.15625 -53.515625 C 72.675781 -46.835938 63.0625 -43.5 51.3125 -43.5 L 35.25 -43.5 L 35.25 0 L 8.53125 0 Z M 35.25 -64.8125 L 42.78125 -64.8125 C 48.75 -64.8125 53.648438 -66.019531 57.484375 -68.4375 C 61.328125 -70.851562 63.25 -74.8125 63.25 -80.3125 C 63.25 -85.90625 61.328125 -89.90625 57.484375 -92.3125 C 53.648438 -94.726562 48.75 -95.9375 42.78125 -95.9375 L 35.25 -95.9375 Z M 35.25 -64.8125 "/></g></g></g><g fill="#e03026" fill-opacity="1"><g transform="translate(653.982323, 127.204807)"><g><path d="M 8.53125 -117.265625 L 51.3125 -117.265625 C 63.25 -117.265625 72.910156 -114.179688 80.296875 -108.015625 C 87.691406 -101.859375 91.390625 -92.90625 91.390625 -81.15625 C 91.390625 -69.40625 87.644531 -60.191406 80.15625 -53.515625 C 72.675781 -46.835938 63.0625 -43.5 51.3125 -43.5 L 35.25 -43.5 L 35.25 0 L 8.53125 0 Z M 35.25 -64.8125 L 42.78125 -64.8125 C 48.75 -64.8125 53.648438 -66.019531 57.484375 -68.4375 C 61.328125 -70.851562 63.25 -74.8125 63.25 -80.3125 C 63.25 -85.90625 61.328125 -89.90625 57.484375 -92.3125 C 53.648438 -94.726562 48.75 -95.9375 42.78125 -95.9375 L 35.25 -95.9375 Z M 35.25 -64.8125 "/></g></g></g></svg>